# xmcd
#
# Track frame offsets: 
#        150
#        38581
#        62811
#        87567
#        121392
#        147714
#        177371
#        195888
#        230515
#        251497
#
# Disc length: 4060 seconds
#
# Revision: 0
# Processed by: cddbd v1.5.2PL0 Copyright (c) Steve Scherf et al.
# Submitted via: ExactAudioCopy v1.0b3
#
DISCID=8a0fda0a
DTITLE=Pebbleman - Life Inside A Dream
DYEAR=2012
DGENRE=Blues Rock
TTITLE0=Li'l Angel
TTITLE1=Lonely Times
TTITLE2=Feel Your Love
TTITLE3=If Heartaches Were Nickels
TTITLE4=Way Back Home
TTITLE5=That Ain't Me
TTITLE6=Shine
TTITLE7=Song Of Yesterday
TTITLE8=Know My Name
TTITLE9=Life Inside A Dream
EXTD=
EXTT0=
EXTT1=
EXTT2=
EXTT3=
EXTT4=
EXTT5=
EXTT6=
EXTT7=
EXTT8=
EXTT9=
PLAYORDER=
